<?xml version="1.0" encoding="UTF-8"?>
<svg id="Layer_1" xmlns="http://www.w3.org/2000/svg" version="1.1" viewBox="0 0 500 339">
  <!-- Generator: Adobe Illustrator 29.0.0, SVG Export Plug-In . SVG Version: 2.1.0 Build 186)  -->
  <defs>
    <style>
      .st0 {
        fill: #F5F3F0;
      }

      .st1 {
        fill: none;
        stroke: #F5F3F0;
        stroke-linecap: round;
        stroke-miterlimit: 10;
        stroke-width: 7.96px;
      }
    </style>
  </defs>
  <g>
    <path class="st1" d="M345.91,206.08c-13.87,39.61-51.57,68.01-95.91,68.01s-82.04-28.41-95.91-68.01"/>
    <path class="st1" d="M158.36,128.59c16.38-34.12,51.26-57.68,91.64-57.68s75.26,23.56,91.64,57.68"/>
  </g>
  <g>
    <path class="st0" d="M60.33,186.51v4.78H23.4v-52.23h35.82v4.78h-30.29v18.58h27.01v4.7h-27.01v19.4h31.41Z"/>
    <path class="st0" d="M72.94,135.92h5.3v55.37h-5.3v-55.37Z"/>
    <path class="st0" d="M127.93,173.3h-32.83c.6,8.21,6.86,13.65,15.45,13.65,4.78,0,9.03-1.72,12.01-5.15l2.98,3.43c-3.51,4.18-8.95,6.42-15.15,6.42-12.24,0-20.59-8.36-20.59-20s8.13-19.92,19.18-19.92,19.03,8.13,19.03,19.92c0,.45-.07,1.04-.07,1.64ZM95.1,169.35h27.83c-.67-7.69-6.27-13.06-13.95-13.06s-13.21,5.37-13.88,13.06Z"/>
    <path class="st0" d="M135.62,171.66c0-11.71,8.51-19.92,20.22-19.92,6.64,0,12.24,2.61,15.37,7.76l-3.95,2.69c-2.69-3.96-6.86-5.82-11.42-5.82-8.58,0-14.85,6.12-14.85,15.3s6.27,15.3,14.85,15.3c4.55,0,8.73-1.79,11.42-5.75l3.95,2.69c-3.13,5.07-8.73,7.76-15.37,7.76-11.71,0-20.22-8.28-20.22-20Z"/>
    <path class="st0" d="M203.44,188.9c-2.09,1.87-5.22,2.76-8.28,2.76-7.39,0-11.49-4.18-11.49-11.42v-23.73h-7.01v-4.48h7.01v-8.58h5.3v8.58h11.94v4.48h-11.94v23.43c0,4.63,2.39,7.16,6.79,7.16,2.16,0,4.33-.67,5.82-2.01l1.87,3.81Z"/>
    <path class="st0" d="M233.58,151.74v5.15c-.45,0-.9-.07-1.27-.07-8.21,0-13.21,5.22-13.21,14.48v20h-5.3v-39.25h5.07v7.69c2.46-5.22,7.46-7.98,14.7-7.98Z"/>
    <path class="st0" d="M239.55,171.66c0-11.64,8.51-19.92,20-19.92s19.92,8.28,19.92,19.92-8.43,20-19.92,20-20-8.36-20-20ZM274.1,171.66c0-9.18-6.19-15.3-14.55-15.3s-14.62,6.12-14.62,15.3,6.27,15.3,14.62,15.3,14.55-6.12,14.55-15.3Z"/>
    <path class="st0" d="M300.66,148.9h-16.71v-9.85h45.51v9.85h-16.71v42.38h-12.09v-42.38Z"/>
    <path class="st0" d="M370.87,174.5h-30.37c1.12,5,5.37,8.06,11.49,8.06,4.25,0,7.31-1.27,10.07-3.88l6.19,6.72c-3.73,4.25-9.33,6.49-16.56,6.49-13.88,0-22.91-8.73-22.91-20.67s9.18-20.67,21.42-20.67,20.89,7.91,20.89,20.82c0,.89-.15,2.16-.22,3.13ZM340.36,167.71h19.77c-.82-5.07-4.63-8.36-9.85-8.36s-9.1,3.21-9.92,8.36Z"/>
    <path class="st0" d="M404.52,150.55v10.75c-.97-.08-1.72-.15-2.61-.15-6.42,0-10.67,3.51-10.67,11.19v18.95h-11.64v-40.14h11.12v5.3c2.83-3.88,7.61-5.9,13.8-5.9Z"/>
    <path class="st0" d="M480.04,168.31v22.98h-11.64v-21.19c0-6.49-2.91-9.48-7.61-9.48-5.22,0-8.88,3.36-8.88,10.52v20.15h-11.64v-21.19c0-6.49-2.76-9.48-7.61-9.48-5.15,0-8.8,3.36-8.8,10.52v20.15h-11.64v-40.14h11.12v4.63c2.98-3.43,7.46-5.22,12.61-5.22,5.6,0,10.37,2.16,13.21,6.57,3.21-4.1,8.43-6.57,14.48-6.57,9.55,0,16.42,5.52,16.42,17.76Z"/>
  </g>
</svg>